<?xml version="1.0" encoding="UTF-8" standalone="no"?>
<svg
   version="1.1"
   x="0px"
   y="0px"
   viewBox="0 0 32 32"
   enable-background="new 0 0 32 32"
   xml:space="preserve"
   id="svg18"
   width="32"
   height="32"
   xmlns="http://www.w3.org/2000/svg"
   xmlns:svg="http://www.w3.org/2000/svg"><defs
     id="defs22" /><g
     id="g12"><path
       d="m 29.707031,6.2929688 -2,-2 c -0.390625,-0.390625 -1.023437,-0.390625 -1.414062,0 -0.390625,0.390625 -0.390625,1.0234375 0,1.4140625 L 26.585937,6 H 22 v 2 h 4.585937 l -0.292968,0.2929688 c -0.390625,0.390625 -0.390625,1.0234375 0,1.4140625 C 26.488281,9.9023438 26.744141,10 27,10 c 0.255859,0 0.511719,-0.097656 0.707031,-0.2929688 l 2,-2 c 0.390625,-0.3906249 0.390625,-1.0234374 0,-1.4140624 z"
       id="path2" /><path
       d="m 4,7 v 5 H 6 V 8 h 4 V 6 H 5 C 4.4472656,6 4,6.4472656 4,7 Z"
       id="path4" /><path
       d="m 16,24 c -0.653809,0 -1.2948,-0.181458 -1.851624,-0.524109 L 2,16 v 12 c 0,1.10457 0.8954306,2 2,2 h 24 c 1.10457,0 2,-0.89543 2,-2 V 16 L 17.851685,23.475891 C 17.294861,23.818542 16.65387,24 16,24 Z"
       id="path6" /><path
       d="M 3.283041,13 H 28.716959 C 29.425564,13 30,13.574437 30,14.283041 v 2e-6 c 0,0.44555 -0.231146,0.859201 -0.610603,1.092712 L 17.851658,22.475903 C 17.294823,22.818571 16.653824,23 16.000002,23 h -3e-6 c -0.653824,0 -1.294823,-0.181429 -1.851657,-0.524097 L 2.6106024,15.375755 C 2.2311463,15.142244 2,14.728593 2,14.283043 v -2e-6 C 2,13.574437 2.5744369,13 3.283041,13 Z"
       id="path8" /><path
       d="m 20,2 h -8 c -0.552285,0 -1,0.4477153 -1,1 v 8 c 0,0.552285 0.447715,1 1,1 h 8 c 0.552284,0 1,-0.447715 1,-1 V 3 C 21,2.4477153 20.552284,2 20,2 Z m -1.071289,2.7573853 -3,5 c -0.0791,0.1318359 -0.214844,0.2202148 -0.367676,0.2387695 -0.02051,0.00244 -0.04101,0.00391 -0.06104,0.00391 -0.131836,0 -0.259277,-0.052246 -0.353516,-0.1464844 l -2,-2 c -0.195312,-0.1953125 -0.195312,-0.5117188 0,-0.7070313 0.195313,-0.1953125 0.511719,-0.1953125 0.707032,0 l 1.547363,1.5473633 2.67041,-4.4511719 c 0.141602,-0.2363281 0.449219,-0.3139648 0.686035,-0.1713867 0.236817,0.1420899 0.313477,0.4492188 0.171387,0.6860353 z"
       id="path10" /></g></svg>
